<?xml version="1.0" encoding="utf-8"?>
<!-- Generator: Adobe Illustrator 25.2.0, SVG Export Plug-In . SVG Version: 6.00 Build 0)  -->
<svg version="1.1" id="Layer_1" xmlns="http://www.w3.org/2000/svg" xmlns:xlink="http://www.w3.org/1999/xlink" x="0px" y="0px"
	 viewBox="0 0 500 500" style="enable-background:new 0 0 500 500;" xml:space="preserve">
<style type="text/css">
	.st0{fill:#CB7D33;}
</style>
<g>
	<path id="foo" d="M159.88,153.9c11.97,10.6,19.92,13.73,3.37,25.58c-7.79,5.19-15.26-9.32-20.18-13.85c0.54,14.38,20.51,31.12,31.68,39.04
		c15.25,10.95,30.26,22.93,40.52,38.87c15.91,27.42,29.49,59.21,58.97,74.72c0.96,0.53,1.36,1.03,1.04,1.64
		c-2.3,3.71-20.05-12-22.34-14.65c-4.19-4.54-8.16-9.14-12.31-13.74c-0.97,5.71-0.28,11.79,1.33,17.3
		c2.64,6.4,3.52,13.96,8.69,18.93c6.43,7.7,14.77,12.86,23.55,17.46c7.09,3.96,13.33,9.06,19.45,14.35
		c11.84,10.17,19.34,24.03,28.32,36.56c5.63,5.91,10.12,12.67,14.4,19.62c4.03,5.66,8.73,10.86,13.13,16.25
		c3.29,3.28,5.38,7.34,7.74,11.3c1.07,1.34-1.05,2.95-1.83,1.17c-2.41-3.93-4.56-7.96-8-11.11c-8.74-9.31-15.45-20.15-22.76-30.56
		c-3.57-3.35-6.15-7.41-8.8-11.45c-7.08-9.67-12.97-20.2-22-28.3c-9.63-9.23-20.95-15.97-32.5-22.47
		c-7.19-5.01-15.54-12.37-18.21-20.89c-3.81-9.52-6.28-19.64-4.93-29.94c0.11-0.87,0.05-1.65-0.5-2.42
		c-3.54-4.74-6.21-9.93-9.06-15.09c-1.71,4.79-7.13,11.64-12.74,9.86c-6.63-3.18-12.11-8.21-18.55-11.75
		c-14.12,3.82-15.53-7.06-22.67-15.91c-14.84-16.97-14.7-31.47-6.93-51.84c-8.06-6.06-15.15-13.35-21.14-21.86
		c-7.02,3.19-18.75,4.75-21.95-4.12c-1.24-1.98-1.61-4.41-0.53-6.56c2.54-4.86,6.24-8.59,11.17-11.01c0.87-0.42,1.43-0.9,1.53-1.84
		c0.75-2.53,3.04-4.4,4.39-6.66c9.25-12.65,25.64-16.74,39.13-23.39c8.34-4.74,18.1-5.95,27.19-2.59
		c12.15,4.59,24.23,9.42,35.77,15.44c9.48,4.69,18.91,9.47,28.41,14.1c5.58,2.65,10.39,6.61,13.55,11.95
		c9.47,18.91,12.84,40.25,18.61,60.48c1.76,8.42,2.67,17.06,6.68,24.84c3.48,8.03,6.78,16.37,12.71,22.95
		c7.71,10.49,14.46,21.7,23.08,31.49c7.46,8.82,14.29,18.31,23.73,25.15c5.87,4.47,11.13,9.58,16.02,15.07
		c11.02,11.8,23.38,22.26,35.17,33.28c8.33,9.08,48.12,33.58,46.15,42.98c-0.62,0.39-1.39,0.09-1.85-0.63
		c-2.19-3.99-5.31-7.28-8.63-10.35c-15.76-14.02-33.79-25.3-48.56-40.51c-9.96-9.41-20.35-18.37-29.41-28.68
		c-8.21-8.42-18.51-14.53-25.68-24.02c-6.04-7.54-12.63-14.65-18.15-22.58c-5.31-6.87-9.36-14.87-15.21-21.22
		c-5.74-7.18-9.07-16.05-12.69-24.44c-4.2-8.21-4-17.81-6.79-26.54c-5.36-18.4-8.27-37.82-16.83-55.11
		c-4.02-8.54-13.17-11.89-21.07-15.91c-8.26-4.12-16.49-8.29-24.81-12.29c-13.79-5.91-27.44-14.34-42.74-15
		c-9.53,1.05-17.82,7.02-26.79,10.1c-8.6,4.1-18.09,8.13-24.23,15.67c-7.62,8.89-5.8,15.18-16.62,22.99
		c-0.88,0.77-0.98,1.69-0.46,2.64c1.55,3.62,5.24,4.59,8.91,4.24c3.11-0.46,6.6-0.01,9.23-2.1c-2.92-5.14-6.14-11.17-3.47-17.01
		c3.88-9.48,10.41-12.01,20.19-9.96c15.32,5.2,9.62,16.45,27.72,2.08c3.22-2.16,5.98,1.13,8.51,2.85c3.68,2.69,8.49,3.05,12.08,6.01
		c4.66,2.99,9.75,6,15.55,5.53c1.45-0.15,6.7,0.02,4.3,2.39c-2.26,0.51-4.55,0.16-6.94,0.25c1.88,6.66,2.18,13.76,0.46,20.5
		c-0.52,2-0.02,4.02,0.39,5.99c1.89,2.51,5.66,3.26,8.36,5.09c3.56-6.47,7.87-12.21,13.45-17c2.42-1.7,10.17-10.48,12.75-8.04
		c0.73,1.27-0.89,1.76-1.71,2.32c-8.74,6.38-17.17,13.66-22.17,23.43c1.69,1.52,26.07,11.16,18.9,12.49
		c-17.81-9.35-36.8-16.78-52.1-30.31c-9.6-7.24-19.11-14.69-27.95-22.88c-4.02-3.35-8.01-7.81-13.37-8.67
		C159.95,153.69,159.92,153.79,159.88,153.9z M169.76,204.07c-7.6,20.19-6.7,33.72,7.68,50.3c7.72-8.26,17.94,7.03,14.25,14.49
		c17.62-2.18,4.66-28.55-2.9-36c-1.98-2.78-4.77-4.73-7.47-6.68c-0.75-1.06,0.01-1.81,1.14-1.91c2.73,1.49,5.21,3.84,7.52,6.01
		c2.95-2.74,3.82-8.17,0.22-10.6C183.33,214.23,177.22,209.13,169.76,204.07z M222.63,277.46c8.88-7.49-1.04-16.84-4.67-24.33
		c-1.66-1.97-4.6-2.38-6.83-3.55c-3.35-1.45-7.02-3.01-9.16-6.11c-0.41-1.05,0.5-1.56,1.41-1.24c0.9,0.67,2.06,1.79,2.91,2.36
		c1.32-1.5,2.51-2.86,3.81-4.33c-4.68-5.57-8.97-11.68-15.13-16.44c-0.46,3.25-0.97,6.25-3.62,8.26c7.61,9.42,17.31,25.58,7.48,36.4
		c1.58,1.07,3.06,2.07,4.56,3.08c1.24-10.83,9.7-9.04,15.59-2.75C221.79,271.08,222.84,273.83,222.63,277.46z M220.98,196.31
		c-0.75-6.2,2-12.03,1.09-18.27c-0.5-3.55-0.44-9.6-5.57-8.67c-6.7,0.94-13.49,1.11-20.09,2.72c-2.05,0.68-4.1,0.97-6.26,0.79
		C200.05,181.1,209.78,189.47,220.98,196.31z M159.86,178.4c3.8-1.6,6.47-5.07,9.59-7.69c0.99-0.93,1.26-2.15,0.57-3.35
		c-3.42-5.58-9.18-9.47-14.4-13.29c-4.4-2.54-8.86,2.84-10.51,6.52C142.64,164.76,155.91,177.36,159.86,178.4z M177.84,163.12
		c3.41,2.09,7.06,7.89,11.08,7.61c7.98-0.7,15.81-2.99,23.82-3.55c-4.72-3.59-9.59-5.51-14.85-7.85
		C188.06,151.43,192.24,158.1,177.84,163.12z M220.15,275.53c-0.29-4.28-9.1-12.29-13.09-8.17c-4.2,5.99,3.83,8.49,7.6,11.47
		C218.62,281.3,219.72,279.59,220.15,275.53z M189.01,268.42c2.79-4.65-0.85-10.28-4.39-13.35c-1.51-1.33-4.57-1.22-5.32,0.85
		c-0.17,0.45,0.25,1.23,0.58,1.75C182.66,261.46,184.42,266.37,189.01,268.42z M211.83,242.69c-6.73,2.63-0.27,4.92,3.52,5.65
		C214.05,246.26,212.93,244.45,211.83,242.69z M134.48,162.58c-3.15,1.33-7.68,6.19-7.91,8.52
		C129.39,168.39,132.75,166.38,134.48,162.58z"/>
	<path class="st0" d="M149.33,133.63c-16.45-10.44-37.81-34.96-40.45-54.64c-2.06-10.77,6.8-17.77,14.75-8.42
		c3.66,5.02,6.24,10.07,9.59,15.6c1.25-6.36,0.78-12.89,3.92-18.69c6.84-11.73,18.18-1.57,18.91,8.44
		C158.34,95.44,150.45,114.26,149.33,133.63z"/>
</g>
</svg>
